# xmcd
#
# Track frame offsets:
#	150
#	13372
#	26736
#	48848
#	68722
#	84775
#	93206
#	107940
#	124040
#	157464
#	170079
#	188913
#	195242
#	205996
#	223136
#	230311
#	243213
#	277792
#
# Disc length: 4777 seconds
#
# Revision: 0
# Processed by: cddbd v1.5.2PL0 Copyright (c) Steve Scherf et al.
# Submitted via: dBpowerAMP V4.0
#
DISCID=f612a712
DTITLE=Little Pink Anderson - Sittin'here singing the blues
DYEAR=2008
DGENRE=Blues
TTITLE0=He's in a jailhouse now
TTITLE1=Lose my money let me lose
TTITLE2=Betty and Dupree
TTITLE3=I just want to go
TTITLE4=See that my grave is kept clean
TTITLE5=I got mine
TTITLE6=Bo Weavil
TTITLE7=Easy
TTITLE8=St. James Infirmary
TTITLE9=Walk with me
TTITLE10=Sitting here singin the blues
TTITLE11=Mutton Stew
TTITLE12=Greasy Greans
TTITLE13=Willy Mae
TTITLE14=Step it up and go
TTITLE15=The sky is crying
TTITLE16=Rainy night in Georgia
TTITLE17=DATA
EXTD=
EXTT0=
EXTT1=
EXTT2=
EXTT3=
EXTT4=
EXTT5=
EXTT6=
EXTT7=
EXTT8=
EXTT9=
EXTT10=
EXTT11=
EXTT12=
EXTT13=
EXTT14=
EXTT15=
EXTT16=
EXTT17=
PLAYORDER=
